<!--?xml version="1.0" standalone="no"?-->
              <svg id="sw-js-blob-svg" viewBox="0 0 100 100" xmlns="http://www.w3.org/2000/svg" version="1.1">
                    <defs> 
                        <linearGradient id="sw-gradient" x1="0" x2="1" y1="1" y2="0">
                            <stop id="stop1" stop-color="rgba(0, 0, 0, 1)" offset="0%"></stop>
                            <stop id="stop2" stop-color="rgba(0, 0, 0, 1)" offset="100%"></stop>
                        </linearGradient>
                    </defs>
                <path fill="url(#sw-gradient)" d="M25.3,-35.2C32.8,-29.4,38.7,-22,40,-13.9C41.3,-5.9,38,2.7,35.4,11.8C32.8,20.9,31,30.5,25.2,34.7C19.4,39,9.7,37.9,1.6,35.8C-6.6,33.6,-13.2,30.4,-19.5,26.3C-25.8,22.2,-31.9,17.3,-36.4,10.2C-41,3.1,-44.1,-6.1,-41.5,-13.3C-38.9,-20.4,-30.5,-25.5,-22.7,-31.1C-14.8,-36.7,-7.4,-42.8,0.8,-43.9C8.9,-44.9,17.9,-40.9,25.3,-35.2Z" width="100%" height="100%" transform="translate(50 50)" stroke-width="0" style="transition: all 0.3s ease 0s;" stroke="url(#sw-gradient)"></path>
              </svg>